<svg xmlns="http://www.w3.org/2000/svg" width="460" height="260" viewBox="0 0 460 260">
    <rect width="100%" height="100%" fill="#ffffff" />
    <rect x="40" y="20" width="4" height="180" fill="#000000" /><rect x="48" y="20" width="4" height="180" fill="#000000" /><rect x="64" y="20" width="4" height="180" fill="#000000" /><rect x="72" y="20" width="4" height="180" fill="#000000" /><rect x="76" y="20" width="4" height="180" fill="#000000" /><rect x="84" y="20" width="4" height="180" fill="#000000" /><rect x="96" y="20" width="4" height="180" fill="#000000" /><rect x="100" y="20" width="4" height="180" fill="#000000" /><rect x="104" y="20" width="4" height="180" fill="#000000" /><rect x="116" y="20" width="4" height="180" fill="#000000" /><rect x="120" y="20" width="4" height="180" fill="#000000" /><rect x="132" y="20" width="4" height="180" fill="#000000" /><rect x="140" y="20" width="4" height="180" fill="#000000" /><rect x="152" y="20" width="4" height="180" fill="#000000" /><rect x="156" y="20" width="4" height="180" fill="#000000" /><rect x="160" y="20" width="4" height="180" fill="#000000" /><rect x="168" y="20" width="4" height="180" fill="#000000" /><rect x="188" y="20" width="4" height="180" fill="#000000" /><rect x="204" y="20" width="4" height="180" fill="#000000" /><rect x="208" y="20" width="4" height="180" fill="#000000" /><rect x="216" y="20" width="4" height="180" fill="#000000" /><rect x="224" y="20" width="4" height="180" fill="#000000" /><rect x="232" y="20" width="4" height="180" fill="#000000" /><rect x="240" y="20" width="4" height="180" fill="#000000" /><rect x="260" y="20" width="4" height="180" fill="#000000" /><rect x="268" y="20" width="4" height="180" fill="#000000" /><rect x="280" y="20" width="4" height="180" fill="#000000" /><rect x="296" y="20" width="4" height="180" fill="#000000" /><rect x="316" y="20" width="4" height="180" fill="#000000" /><rect x="324" y="20" width="4" height="180" fill="#000000" /><rect x="336" y="20" width="4" height="180" fill="#000000" /><rect x="352" y="20" width="4" height="180" fill="#000000" /><rect x="360" y="20" width="4" height="180" fill="#000000" /><rect x="364" y="20" width="4" height="180" fill="#000000" /><rect x="368" y="20" width="4" height="180" fill="#000000" /><rect x="380" y="20" width="4" height="180" fill="#000000" /><rect x="392" y="20" width="4" height="180" fill="#000000" /><rect x="408" y="20" width="4" height="180" fill="#000000" /><rect x="416" y="20" width="4" height="180" fill="#000000" />
    <text x="230" y="235" font-family="monospace" font-size="26" font-weight="bold" text-anchor="middle" fill="#000000">8901030383848</text>
  </svg>